<?xml version="1.0" encoding="iso-8859-1"?>
<!-- Generator: Adobe Illustrator 19.0.0, SVG Export Plug-In . SVG Version: 6.00 Build 0)  -->
<svg version="1.1" id="Layer_1" xmlns="http://www.w3.org/2000/svg" xmlns:xlink="http://www.w3.org/1999/xlink" x="0px" y="0px"
	 viewBox="0 0 512 512" style="enable-background:new 0 0 512 512;" xml:space="preserve">
<circle style="fill:#00EFD1;" cx="256" cy="256" r="256"/>
<path style="fill:#00AD95;" d="M512,256c0-23.136-3.088-45.548-8.841-66.866L399.701,85.677
	c-13.344-15.34-32.991-25.05-54.919-25.05c-31.55,0-58.403,20.079-68.5,48.152c-15.006-11.651-38.238-8.531-48.811,9.392
	L145.37,257.343l-51.238-51.516c-10.405-12.697-30.909-11.655-39.641,3.143L3.125,296.042c0.185,1.177,0.383,2.35,0.584,3.522
	c0.218,1.275,0.448,2.546,0.685,3.815c0.207,1.108,0.414,2.216,0.636,3.319c0.182,0.906,0.375,1.808,0.567,2.711
	c0.21,0.988,0.423,1.976,0.644,2.96c0.205,0.914,0.415,1.826,0.63,2.737c0.234,0.987,0.476,1.971,0.721,2.954
	c0.22,0.882,0.436,1.765,0.664,2.643c0.313,1.203,0.643,2.4,0.973,3.596c0.357,1.292,0.725,2.58,1.101,3.863
	c0.302,1.031,0.604,2.062,0.918,3.088c0.281,0.914,0.573,1.824,0.864,2.734c0.285,0.893,0.573,1.785,0.868,2.673
	c0.309,0.932,0.623,1.862,0.943,2.79c0.298,0.864,0.603,1.724,0.91,2.583c0.33,0.925,0.658,1.852,0.998,2.772
	c0.336,0.908,0.686,1.81,1.032,2.714c0.607,1.586,1.23,3.164,1.867,4.734c0.341,0.84,0.679,1.682,1.029,2.517
	c0.391,0.934,0.794,1.862,1.195,2.79c0.342,0.791,0.686,1.581,1.036,2.368c0.412,0.927,0.829,1.85,1.252,2.771
	c0.362,0.789,0.731,1.574,1.101,2.359c0.426,0.903,0.85,1.807,1.286,2.704c0.421,0.866,0.854,1.724,1.284,2.585
	c0.359,0.718,0.711,1.44,1.076,2.154L139.511,484.02C174.454,501.908,214.049,512,256,512C397.385,512,512,397.385,512,256z"/>
<path style="fill:#8A6746;" d="M192.81,372.5H27.99c-12.08-23.6-20.61-49.32-24.87-76.45l51.37-87.08c9.4-15.93,32.45-15.93,41.85,0
	L192.81,372.5z"/>
<path style="fill:#715539;" d="M508.88,296.05c-4.26,27.13-12.79,52.85-24.87,76.45H319.19l96.47-163.53
	c9.4-15.93,32.45-15.93,41.85,0L508.88,296.05z"/>
<circle style="fill:#FEC000;" cx="344.78" cy="133.41" r="72.78"/>
<path style="fill:#ECB300;" d="M417.57,133.41c0,40.2-32.59,72.78-72.79,72.78V60.63C384.98,60.63,417.57,93.21,417.57,133.41z"/>
<path style="fill:#B38A65;" d="M227.472,118.17L77.435,372.5h357.13L284.528,118.17C271.713,96.447,240.287,96.447,227.472,118.17z"
	/>
<path style="fill:#8A6746;" d="M434.57,372.5H256V101.88c11.06,0,22.12,5.43,28.53,16.29l148.61,251.9L434.57,372.5z"/>
<path style="fill:#00C379;" d="M256,512c100.394,0,187.274-57.799,229.222-141.928H26.777C68.725,454.201,155.606,512,256,512z"/>
<g>
	<path style="fill:#00A753;" d="M485.22,370.07C443.27,454.2,356.39,512,256,512V370.07H485.22z"/>
	<rect x="76.18" y="385.9" style="fill:#00A753;" width="71.845" height="16.4"/>
	<rect x="166.4" y="417.33" style="fill:#00A753;" width="71.845" height="16.4"/>
	<rect x="145.24" y="452.6" style="fill:#00A753;" width="71.845" height="16.4"/>
</g>
<g>
	<rect x="363.98" y="385.9" style="fill:#007F40;" width="71.845" height="16.4"/>
	<rect x="273.75" y="417.33" style="fill:#007F40;" width="71.845" height="16.4"/>
	<rect x="294.92" y="452.6" style="fill:#007F40;" width="71.845" height="16.4"/>
</g>
<g>
</g>
<g>
</g>
<g>
</g>
<g>
</g>
<g>
</g>
<g>
</g>
<g>
</g>
<g>
</g>
<g>
</g>
<g>
</g>
<g>
</g>
<g>
</g>
<g>
</g>
<g>
</g>
<g>
</g>
</svg>
